<?xml version="1.0" encoding="utf-8" standalone="no"?>
<!DOCTYPE svg PUBLIC "-//W3C//DTD SVG 1.1//EN"
  "http://www.w3.org/Graphics/SVG/1.1/DTD/svg11.dtd">
<svg xmlns:xlink="http://www.w3.org/1999/xlink" width="475.2pt" height="300.71252pt" viewBox="0 0 475.2 300.71252" xmlns="http://www.w3.org/2000/svg" version="1.1">
 <metadata>
  <rdf:RDF xmlns:dc="http://purl.org/dc/elements/1.1/" xmlns:cc="http://creativecommons.org/ns#" xmlns:rdf="http://www.w3.org/1999/02/22-rdf-syntax-ns#">
   <cc:Work>
    <dc:type rdf:resource="http://purl.org/dc/dcmitype/StillImage"/>
    <dc:date>2026-10-07T22:05:30.097010</dc:date>
    <dc:format>image/svg+xml</dc:format>
    <dc:creator>
     <cc:Agent>
      <dc:title>Matplotlib v3.10.8, https://matplotlib.org/</dc:title>
     </cc:Agent>
    </dc:creator>
   </cc:Work>
  </rdf:RDF>
 </metadata>
 <defs>
  <style type="text/css">*{stroke-linejoin: round; stroke-linecap: butt}</style>
 </defs>
 <g id="figure_1">
  <g id="patch_1">
   <path d="M 0 300.71252 
L 475.2 300.71252 
L 475.2 0 
L 0 0 
z
" style="fill: #ffffff"/>
  </g>
  <g id="axes_1">
   <g id="patch_2">
    <path d="M 3.3264 40.77812 
L 287.0208 40.77812 
Q 287.0208 40.77812 287.0208 40.77812 
L 287.0208 21.77012 
Q 287.0208 21.77012 287.0208 21.77012 
L 3.3264 21.77012 
Q 3.3264 21.77012 3.3264 21.77012 
L 3.3264 40.77812 
Q 3.3264 40.77812 3.3264 40.77812 
z
" clip-path="url(#p12ce024832)" style="fill: #b0cedd; stroke: #8ea8b3; stroke-width: 0.65; stroke-linejoin: miter"/>
   </g>
   <g id="patch_3">
    <path d="M 304.6032 40.77812 
L 471.8736 40.77812 
Q 471.8736 40.77812 471.8736 40.77812 
L 471.8736 21.77012 
Q 471.8736 21.77012 471.8736 21.77012 
L 304.6032 21.77012 
Q 304.6032 21.77012 304.6032 21.77012 
L 304.6032 40.77812 
Q 304.6032 40.77812 304.6032 40.77812 
z
" clip-path="url(#p12ce024832)" style="fill: #bed5c8; stroke: #8ea8b3; stroke-width: 0.65; stroke-linejoin: miter"/>
   </g>
   <g id="patch_4">
    <path d="M 5.4648 122.03732 
L 469.7352 122.03732 
Q 471.8736 122.03732 471.8736 119.89892 
L 471.8736 47.66852 
Q 471.8736 45.53012 469.7352 45.53012 
L 5.4648 45.53012 
Q 3.3264 45.53012 3.3264 47.66852 
L 3.3264 119.89892 
Q 3.3264 122.03732 5.4648 122.03732 
z
" clip-path="url(#p12ce024832)" style="fill: #eef5f9; stroke: #d0e0e8; stroke-width: 0.65; stroke-linejoin: miter"/>
   </g>
   <g id="patch_5">
    <path d="M 5.4648 122.03732 
L 34.9272 122.03732 
Q 37.0656 122.03732 37.0656 119.89892 
L 37.0656 47.66852 
Q 37.0656 45.53012 34.9272 45.53012 
L 5.4648 45.53012 
Q 3.3264 45.53012 3.3264 47.66852 
L 3.3264 119.89892 
Q 3.3264 122.03732 5.4648 122.03732 
z
" clip-path="url(#p12ce024832)" style="fill: #d1e3ed; stroke: #d0e0e8; stroke-width: 0.65; stroke-linejoin: miter"/>
   </g>
   <g id="patch_6">
    <path d="M 46.332 117.28532 
L 137.5704 117.28532 
Q 139.7088 117.28532 139.7088 115.14692 
L 139.7088 52.42052 
Q 139.7088 50.28212 137.5704 50.28212 
L 46.332 50.28212 
Q 44.1936 50.28212 44.1936 52.42052 
L 44.1936 115.14692 
Q 44.1936 117.28532 46.332 117.28532 
z
" clip-path="url(#p12ce024832)" style="fill: #ffffff; stroke: #8ea8b3; stroke-width: 0.65; stroke-linejoin: miter"/>
   </g>
   <g id="patch_7">
    <path d="M 50.3712 84.97172 
L 89.1 84.97172 
L 89.1 72.37892 
L 50.3712 72.37892 
z
" clip-path="url(#p12ce024832)" style="fill: #8cb4c9; stroke: #ffffff; stroke-width: 0.45; stroke-linejoin: miter"/>
   </g>
   <g id="patch_8">
    <path d="M 90.288 84.97172 
L 107.3952 84.97172 
L 107.3952 72.37892 
L 90.288 72.37892 
z
" clip-path="url(#p12ce024832)" style="fill: #bfd6e1; stroke: #ffffff; stroke-width: 0.45; stroke-linejoin: miter"/>
   </g>
   <g id="patch_9">
    <path d="M 108.5832 84.97172 
L 132.3432 84.97172 
L 132.3432 72.37892 
L 108.5832 72.37892 
z
" clip-path="url(#p12ce024832)" style="fill: #dfebf1; stroke: #ffffff; stroke-width: 0.45; stroke-linejoin: miter"/>
   </g>
   <g id="patch_10">
    <path d="M 52.373557 90.91172 
Q 91.954255 90.91172 130.640525 90.91172 
" clip-path="url(#p12ce024832)" style="fill: none; stroke: #617580; stroke-width: 0.8; stroke-linecap: round"/>
    <path d="M 127.840525 89.51172 
L 130.640525 90.91172 
L 127.840525 92.31172 
z
" clip-path="url(#p12ce024832)" style="fill: #617580; stroke: #617580; stroke-width: 0.8; stroke-linecap: round"/>
   </g>
   <g id="patch_11">
    <path d="M 142.182369 83.78372 
Q 146.121994 83.78372 149.167192 83.78372 
" clip-path="url(#p12ce024832)" style="fill: none; stroke: #617580; stroke-width: 0.8; stroke-linecap: round"/>
    <path d="M 146.367192 82.38372 
L 149.167192 83.78372 
L 146.367192 85.18372 
z
" clip-path="url(#p12ce024832)" style="fill: #617580; stroke: #617580; stroke-width: 0.8; stroke-linecap: round"/>
   </g>
   <g id="patch_12">
    <path d="M 157.0536 117.28532 
L 284.8824 117.28532 
Q 287.0208 117.28532 287.0208 115.14692 
L 287.0208 52.42052 
Q 287.0208 50.28212 284.8824 50.28212 
L 157.0536 50.28212 
Q 154.9152 50.28212 154.9152 52.42052 
L 154.9152 115.14692 
Q 154.9152 117.28532 157.0536 117.28532 
z
" clip-path="url(#p12ce024832)" style="fill: #faebc7; stroke: #d9b66e; stroke-width: 0.65; stroke-linejoin: miter"/>
   </g>
   <g id="patch_13">
    <path d="M 186.7536 91.62452 
L 205.7616 91.62452 
L 205.7616 86.63492 
L 186.7536 86.63492 
z
" clip-path="url(#p12ce024832)" style="fill: #b0cedd; stroke: #8ea8b3; stroke-width: 0.45; stroke-linejoin: miter"/>
   </g>
   <g id="patch_14">
    <path d="M 175.3488 84.02132 
L 205.7616 84.02132 
L 205.7616 79.03172 
L 175.3488 79.03172 
z
" clip-path="url(#p12ce024832)" style="fill: #b0cedd; stroke: #8ea8b3; stroke-width: 0.45; stroke-linejoin: miter"/>
   </g>
   <g id="patch_15">
    <path d="M 163.944 76.41812 
L 205.7616 76.41812 
L 205.7616 71.42852 
L 163.944 71.42852 
z
" clip-path="url(#p12ce024832)" style="fill: #b0cedd; stroke: #8ea8b3; stroke-width: 0.45; stroke-linejoin: miter"/>
   </g>
   <g id="patch_16">
    <path d="M 290.446277 83.78372 
Q 294.624053 83.78372 297.907402 83.78372 
" clip-path="url(#p12ce024832)" style="fill: none; stroke: #617580; stroke-width: 0.8; stroke-linecap: round"/>
    <path d="M 295.107402 82.38372 
L 297.907402 83.78372 
L 295.107402 85.18372 
z
" clip-path="url(#p12ce024832)" style="fill: #617580; stroke: #617580; stroke-width: 0.8; stroke-linecap: round"/>
   </g>
   <g id="patch_17">
    <path d="M 306.7416 117.28532 
L 466.4088 117.28532 
Q 468.5472 117.28532 468.5472 115.14692 
L 468.5472 52.42052 
Q 468.5472 50.28212 466.4088 50.28212 
L 306.7416 50.28212 
Q 304.6032 50.28212 304.6032 52.42052 
L 304.6032 115.14692 
Q 304.6032 117.28532 306.7416 117.28532 
z
" clip-path="url(#p12ce024832)" style="fill: #eaf2ed; stroke: #a8bfb1; stroke-width: 0.65; stroke-linejoin: miter"/>
   </g>
   <g id="patch_18">
    <path d="M 386.5752 87.448189 
Q 386.5752 89.011492 386.5752 89.680367 
" clip-path="url(#p12ce024832)" style="fill: none; stroke: #4e7865; stroke-width: 0.8; stroke-linecap: round"/>
    <path d="M 387.9752 86.880367 
L 386.5752 89.680367 
L 385.1752 86.880367 
z
" clip-path="url(#p12ce024832)" style="fill: #4e7865; stroke: #4e7865; stroke-width: 0.8; stroke-linecap: round"/>
   </g>
   <g id="patch_19">
    <path d="M 5.4648 196.16852 
L 469.7352 196.16852 
Q 471.8736 196.16852 471.8736 194.03012 
L 471.8736 128.92772 
Q 471.8736 126.78932 469.7352 126.78932 
L 5.4648 126.78932 
Q 3.3264 126.78932 3.3264 128.92772 
L 3.3264 194.03012 
Q 3.3264 196.16852 5.4648 196.16852 
z
" clip-path="url(#p12ce024832)" style="fill: #eef5f9; stroke: #d0e0e8; stroke-width: 0.65; stroke-linejoin: miter"/>
   </g>
   <g id="patch_20">
    <path d="M 5.4648 196.16852 
L 34.9272 196.16852 
Q 37.0656 196.16852 37.0656 194.03012 
L 37.0656 128.92772 
Q 37.0656 126.78932 34.9272 126.78932 
L 5.4648 126.78932 
Q 3.3264 126.78932 3.3264 128.92772 
L 3.3264 194.03012 
Q 3.3264 196.16852 5.4648 196.16852 
z
" clip-path="url(#p12ce024832)" style="fill: #d1e3ed; stroke: #d0e0e8; stroke-width: 0.65; stroke-linejoin: miter"/>
   </g>
   <g id="patch_21">
    <path d="M 46.332 191.41652 
L 137.5704 191.41652 
Q 139.7088 191.41652 139.7088 189.27812 
L 139.7088 133.67972 
Q 139.7088 131.54132 137.5704 131.54132 
L 46.332 131.54132 
Q 44.1936 131.54132 44.1936 133.67972 
L 44.1936 189.27812 
Q 44.1936 191.41652 46.332 191.41652 
z
" clip-path="url(#p12ce024832)" style="fill: #ffffff; stroke: #8ea8b3; stroke-width: 0.65; stroke-linejoin: miter"/>
   </g>
   <g id="patch_22">
    <path d="M 50.3712 165.99332 
L 89.1 165.99332 
L 89.1 153.40052 
L 50.3712 153.40052 
z
" clip-path="url(#p12ce024832)" style="fill: #8cb4c9; stroke: #ffffff; stroke-width: 0.45; stroke-linejoin: miter"/>
   </g>
   <g id="patch_23">
    <path d="M 90.288 165.99332 
L 107.3952 165.99332 
L 107.3952 153.40052 
L 90.288 153.40052 
z
" clip-path="url(#p12ce024832)" style="fill: #bfd6e1; stroke: #ffffff; stroke-width: 0.45; stroke-linejoin: miter"/>
   </g>
   <g id="patch_24">
    <path d="M 108.5832 165.99332 
L 132.3432 165.99332 
L 132.3432 153.40052 
L 108.5832 153.40052 
z
" clip-path="url(#p12ce024832)" style="fill: #dfebf1; stroke: #ffffff; stroke-width: 0.45; stroke-linejoin: miter"/>
   </g>
   <g id="patch_25">
    <path d="M 52.373557 171.93332 
Q 91.954255 171.93332 130.640525 171.93332 
" clip-path="url(#p12ce024832)" style="fill: none; stroke: #617580; stroke-width: 0.8; stroke-linecap: round"/>
    <path d="M 127.840525 170.53332 
L 130.640525 171.93332 
L 127.840525 173.33332 
z
" clip-path="url(#p12ce024832)" style="fill: #617580; stroke: #617580; stroke-width: 0.8; stroke-linecap: round"/>
   </g>
   <g id="patch_26">
    <path d="M 142.182369 161.47892 
Q 146.121994 161.47892 149.167192 161.47892 
" clip-path="url(#p12ce024832)" style="fill: none; stroke: #617580; stroke-width: 0.8; stroke-linecap: round"/>
    <path d="M 146.367192 160.07892 
L 149.167192 161.47892 
L 146.367192 162.87892 
z
" clip-path="url(#p12ce024832)" style="fill: #617580; stroke: #617580; stroke-width: 0.8; stroke-linecap: round"/>
   </g>
   <g id="patch_27">
    <path d="M 157.0536 191.41652 
L 284.8824 191.41652 
Q 287.0208 191.41652 287.0208 189.27812 
L 287.0208 133.67972 
Q 287.0208 131.54132 284.8824 131.54132 
L 157.0536 131.54132 
Q 154.9152 131.54132 154.9152 133.67972 
L 154.9152 189.27812 
Q 154.9152 191.41652 157.0536 191.41652 
z
" clip-path="url(#p12ce024832)" style="fill: #faebc7; stroke: #d9b66e; stroke-width: 0.65; stroke-linejoin: miter"/>
   </g>
   <g id="patch_28">
    <path d="M 220.968 165.377509 
Q 220.968 166.707187 220.968 167.142438 
" clip-path="url(#p12ce024832)" style="fill: none; stroke: #617580; stroke-width: 0.8; stroke-linecap: round"/>
    <path d="M 222.368 164.342438 
L 220.968 167.142438 
L 219.568 164.342438 
z
" clip-path="url(#p12ce024832)" style="fill: #617580; stroke: #617580; stroke-width: 0.8; stroke-linecap: round"/>
   </g>
   <g id="patch_29">
    <path d="M 290.446277 161.47892 
Q 294.624053 161.47892 297.907402 161.47892 
" clip-path="url(#p12ce024832)" style="fill: none; stroke: #617580; stroke-width: 0.8; stroke-linecap: round"/>
    <path d="M 295.107402 160.07892 
L 297.907402 161.47892 
L 295.107402 162.87892 
z
" clip-path="url(#p12ce024832)" style="fill: #617580; stroke: #617580; stroke-width: 0.8; stroke-linecap: round"/>
   </g>
   <g id="patch_30">
    <path d="M 306.7416 191.41652 
L 466.4088 191.41652 
Q 468.5472 191.41652 468.5472 189.27812 
L 468.5472 133.67972 
Q 468.5472 131.54132 466.4088 131.54132 
L 306.7416 131.54132 
Q 304.6032 131.54132 304.6032 133.67972 
L 304.6032 189.27812 
Q 304.6032 191.41652 306.7416 191.41652 
z
" clip-path="url(#p12ce024832)" style="fill: #eaf2ed; stroke: #a8bfb1; stroke-width: 0.65; stroke-linejoin: miter"/>
   </g>
   <g id="patch_31">
    <path d="M 5.4648 267.44852 
L 469.7352 267.44852 
Q 471.8736 267.44852 471.8736 265.31012 
L 471.8736 203.05892 
Q 471.8736 200.92052 469.7352 200.92052 
L 5.4648 200.92052 
Q 3.3264 200.92052 3.3264 203.05892 
L 3.3264 265.31012 
Q 3.3264 267.44852 5.4648 267.44852 
z
" clip-path="url(#p12ce024832)" style="fill: #f4f7f6; stroke: #d1ddd7; stroke-width: 0.65; stroke-linejoin: miter"/>
   </g>
   <g id="patch_32">
    <path d="M 5.4648 267.44852 
L 34.9272 267.44852 
Q 37.0656 267.44852 37.0656 265.31012 
L 37.0656 203.05892 
Q 37.0656 200.92052 34.9272 200.92052 
L 5.4648 200.92052 
Q 3.3264 200.92052 3.3264 203.05892 
L 3.3264 265.31012 
Q 3.3264 267.44852 5.4648 267.44852 
z
" clip-path="url(#p12ce024832)" style="fill: #d5e4dd; stroke: #d1ddd7; stroke-width: 0.65; stroke-linejoin: miter"/>
   </g>
   <g id="patch_33">
    <path d="M 46.332 262.69652 
L 137.5704 262.69652 
Q 139.7088 262.69652 139.7088 260.55812 
L 139.7088 207.81092 
Q 139.7088 205.67252 137.5704 205.67252 
L 46.332 205.67252 
Q 44.1936 205.67252 44.1936 207.81092 
L 44.1936 260.55812 
Q 44.1936 262.69652 46.332 262.69652 
z
" clip-path="url(#p12ce024832)" style="fill: #ffffff; stroke: #8ea8b3; stroke-width: 0.65; stroke-linejoin: miter"/>
   </g>
   <g id="patch_34">
    <path d="M 58.9248 248.91572 
L 95.04 248.91572 
L 95.04 221.82932 
L 58.9248 221.82932 
z
" clip-path="url(#p12ce024832)" style="fill: #ffffff; stroke: #8ea8b3; stroke-width: 0.65; stroke-linejoin: miter"/>
   </g>
   <g id="patch_35">
    <path d="M 55.5984 251.76692 
L 91.7136 251.76692 
L 91.7136 224.68052 
L 55.5984 224.68052 
z
" clip-path="url(#p12ce024832)" style="fill: #ffffff; stroke: #8ea8b3; stroke-width: 0.65; stroke-linejoin: miter"/>
   </g>
   <g id="patch_36">
    <path d="M 52.272 254.61812 
L 88.3872 254.61812 
L 88.3872 227.53172 
L 52.272 227.53172 
z
" clip-path="url(#p12ce024832)" style="fill: #ffffff; stroke: #8ea8b3; stroke-width: 0.65; stroke-linejoin: miter"/>
   </g>
   <g id="patch_37">
    <path d="M 142.182369 234.18452 
Q 146.121994 234.18452 149.167192 234.18452 
" clip-path="url(#p12ce024832)" style="fill: none; stroke: #617580; stroke-width: 0.8; stroke-linecap: round"/>
    <path d="M 146.367192 232.78452 
L 149.167192 234.18452 
L 146.367192 235.58452 
z
" clip-path="url(#p12ce024832)" style="fill: #617580; stroke: #617580; stroke-width: 0.8; stroke-linecap: round"/>
   </g>
   <g id="patch_38">
    <path d="M 157.0536 262.69652 
L 284.8824 262.69652 
Q 287.0208 262.69652 287.0208 260.55812 
L 287.0208 207.81092 
Q 287.0208 205.67252 284.8824 205.67252 
L 157.0536 205.67252 
Q 154.9152 205.67252 154.9152 207.81092 
L 154.9152 260.55812 
Q 154.9152 262.69652 157.0536 262.69652 
z
" clip-path="url(#p12ce024832)" style="fill: #ffffff; stroke: #8ea8b3; stroke-width: 0.65; stroke-linejoin: miter"/>
   </g>
   <g id="patch_39">
    <path d="M 197.6832 238.93652 
L 202.4352 238.93652 
L 202.4352 229.43252 
L 197.6832 229.43252 
z
" clip-path="url(#p12ce024832)" style="fill: #b0cedd; stroke: #8ea8b3; stroke-width: 0.45; stroke-linejoin: miter"/>
   </g>
   <g id="patch_40">
    <path d="M 203.3856 238.93652 
L 208.1376 238.93652 
L 208.1376 229.43252 
L 203.3856 229.43252 
z
" clip-path="url(#p12ce024832)" style="fill: #b0cedd; stroke: #8ea8b3; stroke-width: 0.45; stroke-linejoin: miter"/>
   </g>
   <g id="patch_41">
    <path d="M 209.088 238.93652 
L 213.84 238.93652 
L 213.84 229.43252 
L 209.088 229.43252 
z
" clip-path="url(#p12ce024832)" style="fill: #ffffff; stroke: #8ea8b3; stroke-width: 0.45; stroke-linejoin: miter"/>
   </g>
   <g id="patch_42">
    <path d="M 214.7904 238.93652 
L 219.5424 238.93652 
L 219.5424 229.43252 
L 214.7904 229.43252 
z
" clip-path="url(#p12ce024832)" style="fill: #ffffff; stroke: #8ea8b3; stroke-width: 0.45; stroke-linejoin: miter"/>
   </g>
   <g id="patch_43">
    <path d="M 220.4928 238.93652 
L 225.2448 238.93652 
L 225.2448 229.43252 
L 220.4928 229.43252 
z
" clip-path="url(#p12ce024832)" style="fill: #b0cedd; stroke: #8ea8b3; stroke-width: 0.45; stroke-linejoin: miter"/>
   </g>
   <g id="patch_44">
    <path d="M 226.1952 238.93652 
L 230.9472 238.93652 
L 230.9472 229.43252 
L 226.1952 229.43252 
z
" clip-path="url(#p12ce024832)" style="fill: #b0cedd; stroke: #8ea8b3; stroke-width: 0.45; stroke-linejoin: miter"/>
   </g>
   <g id="patch_45">
    <path d="M 231.8976 238.93652 
L 236.6496 238.93652 
L 236.6496 229.43252 
L 231.8976 229.43252 
z
" clip-path="url(#p12ce024832)" style="fill: #b0cedd; stroke: #8ea8b3; stroke-width: 0.45; stroke-linejoin: miter"/>
   </g>
   <g id="patch_46">
    <path d="M 237.6 238.93652 
L 242.352 238.93652 
L 242.352 229.43252 
L 237.6 229.43252 
z
" clip-path="url(#p12ce024832)" style="fill: #ffffff; stroke: #8ea8b3; stroke-width: 0.45; stroke-linejoin: miter"/>
   </g>
   <g id="patch_47">
    <path d="M 290.446277 234.18452 
Q 294.624053 234.18452 297.907402 234.18452 
" clip-path="url(#p12ce024832)" style="fill: none; stroke: #617580; stroke-width: 0.8; stroke-linecap: round"/>
    <path d="M 295.107402 232.78452 
L 297.907402 234.18452 
L 295.107402 235.58452 
z
" clip-path="url(#p12ce024832)" style="fill: #617580; stroke: #617580; stroke-width: 0.8; stroke-linecap: round"/>
   </g>
   <g id="patch_48">
    <path d="M 306.7416 262.69652 
L 466.4088 262.69652 
Q 468.5472 262.69652 468.5472 260.55812 
L 468.5472 207.81092 
Q 468.5472 205.67252 466.4088 205.67252 
L 306.7416 205.67252 
Q 304.6032 205.67252 304.6032 207.81092 
L 304.6032 260.55812 
Q 304.6032 262.69652 306.7416 262.69652 
z
" clip-path="url(#p12ce024832)" style="fill: #eaf2ed; stroke: #a8bfb1; stroke-width: 0.65; stroke-linejoin: miter"/>
   </g>
   <g id="line2d_1">
    <path d="M 211.464 93.05012 
L 211.464 67.86452 
" clip-path="url(#p12ce024832)" style="fill: none; stroke-dasharray: 1.3,1.3; stroke-dashoffset: 0; stroke: #617580; stroke-width: 0.65"/>
   </g>
   <g id="line2d_2">
    <path d="M 57.9744 247.96532 
L 82.6848 247.96532 
" clip-path="url(#p12ce024832)" style="fill: none; stroke: #8ea8b3; stroke-width: 0.65; stroke-linecap: square"/>
   </g>
   <g id="line2d_3">
    <path d="M 57.9744 242.26292 
L 82.6848 242.26292 
" clip-path="url(#p12ce024832)" style="fill: none; stroke: #8ea8b3; stroke-width: 0.65; stroke-linecap: square"/>
   </g>
   <g id="line2d_4">
    <path d="M 57.9744 236.56052 
L 82.6848 236.56052 
" clip-path="url(#p12ce024832)" style="fill: none; stroke: #8ea8b3; stroke-width: 0.65; stroke-linecap: square"/>
   </g>
   <g id="line2d_5">
    <path d="M 197.6832 243.21332 
L 242.352 243.21332 
" clip-path="url(#p12ce024832)" style="fill: none; stroke: #617580; stroke-width: 0.65; stroke-linecap: square"/>
   </g>
   <g id="text_1">
    <text style="font-weight: 700; font-size: 10.4px; font-family: 'Arial'; text-anchor: start; fill: #243d49" x="3.8016" y="12.606825" transform="rotate(-0 3.8016 12.606825)">Earlier studies and analysis chronology</text>
   </g>
   <g id="text_2">
    <text style="font-size: 7.5px; font-family: 'Arial'; text-anchor: end; fill: #617580" x="470.448" y="12.157425" transform="rotate(-0 470.448 12.157425)">Separate designs</text>
   </g>
   <g id="text_3">
    <text style="font-weight: 700; font-size: 8.8px; font-family: 'Arial'; text-anchor: middle; fill: #243d49" x="145.1736" y="33.55112" transform="rotate(-0 145.1736 33.55112)">Temporal design and fixed references</text>
   </g>
   <g id="text_4">
    <text style="font-weight: 700; font-size: 8.8px; font-family: 'Arial'; text-anchor: middle; fill: #243d49" x="388.2384" y="33.497495" transform="rotate(-0 388.2384 33.497495)">Evaluation and analysis roles</text>
   </g>
   <g id="text_5">
    <text style="font-weight: 700; font-size: 8.5px; font-family: 'Arial'; fill: #243d49" transform="translate(22.395375 120.867626) rotate(-90)">PaySim / IEEE-CIS</text>
   </g>
   <g id="text_6">
    <text style="font-weight: 700; font-size: 8.2px; font-family: 'Arial'; text-anchor: middle; fill: #243d49" x="91.9512" y="62.85827" transform="rotate(-0 91.9512 62.85827)">Original time splits</text>
   </g>
   <g id="text_7">
    <text style="font-size: 7.35px; font-family: 'Arial'; text-anchor: middle; fill: #243d49" x="69.7356" y="80.59917" transform="rotate(-0 69.7356 80.59917)">Train</text>
   </g>
   <g id="text_8">
    <text style="font-size: 7.35px; font-family: 'Arial'; text-anchor: middle; fill: #243d49" x="98.8416" y="80.59917" transform="rotate(-0 98.8416 80.59917)">Val</text>
   </g>
   <g id="text_9">
    <text style="font-size: 7.35px; font-family: 'Arial'; text-anchor: middle; fill: #243d49" x="120.4632" y="80.59917" transform="rotate(-0 120.4632 80.59917)">Test</text>
   </g>
   <g id="text_10">
    <text style="font-size: 7.8px; font-family: 'Arial'; fill: #243d49" transform="translate(54.669638 101.406088)">Three future windows</text>
    <text style="font-size: 7.8px; font-family: 'Arial'; fill: #243d49" transform="translate(60.955341 109.544389)">Intact time groups</text>
   </g>
   <g id="text_11">
    <text style="font-weight: 700; font-size: 8.2px; font-family: 'Arial'; text-anchor: middle; fill: #243d49" x="220.968" y="62.85827" transform="rotate(-0 220.968 62.85827)">Fixed LightGBM studies</text>
   </g>
   <g id="text_12">
    <text style="font-size: 7.2px; font-family: 'Arial'; text-anchor: middle; fill: #243d49" x="211.464" y="100.376232" transform="rotate(-0 211.464 100.376232)">t</text>
   </g>
   <g id="text_13">
    <text style="font-size: 7.8px; font-family: 'Arial'; fill: #243d49" transform="translate(240.156 82.399916)">Strictly</text>
    <text style="font-size: 7.8px; font-family: 'Arial'; fill: #243d49" transform="translate(231.915422 90.629623)">past history</text>
   </g>
   <g id="text_14">
    <text style="font-size: 7.4px; font-family: 'Arial'; text-anchor: middle; fill: #243d49" x="220.968" y="109.45847" transform="rotate(-0 220.968 109.45847)">Train-only fit · five paired seeds</text>
   </g>
   <g id="text_15">
    <text style="font-weight: 700; font-size: 8.05px; font-family: 'Arial'; text-anchor: middle; fill: #4e7865" x="386.5752" y="61.869057" transform="rotate(-0 386.5752 61.869057)">Original future-window evaluation</text>
   </g>
   <g id="text_16">
    <text style="font-size: 7.6px; font-family: 'Arial'; fill: #243d49" transform="translate(330.044262 72.519007)">PaySim: transferred Val threshold</text>
    <!-- IEEE-CIS: $k=\lceil0.03N\rceil$ -->
    <g style="fill: #243d49" transform="translate(347.0552 80.537695)">
     <text>
      <tspan x="0" y="-0.921875" style="font-size: 7.6px; font-family: 'Arial'; fill: #243d49">I</tspan>
      <tspan x="2.118469" y="-0.921875" style="font-size: 7.6px; font-family: 'Arial'; fill: #243d49">E</tspan>
      <tspan x="7.204285" y="-0.921875" style="font-size: 7.6px; font-family: 'Arial'; fill: #243d49">E</tspan>
      <tspan x="12.2901" y="-0.921875" style="font-size: 7.6px; font-family: 'Arial'; fill: #243d49">E</tspan>
      <tspan x="17.375916" y="-0.921875" style="font-size: 7.6px; font-family: 'Arial'; fill: #243d49">-</tspan>
      <tspan x="19.9151" y="-0.921875" style="font-size: 7.6px; font-family: 'Arial'; fill: #243d49">C</tspan>
      <tspan x="25.421631" y="-0.921875" style="font-size: 7.6px; font-family: 'Arial'; fill: #243d49">I</tspan>
      <tspan x="27.5401" y="-0.921875" style="font-size: 7.6px; font-family: 'Arial'; fill: #243d49">S</tspan>
      <tspan x="32.625916" y="-0.921875" style="font-size: 7.6px; font-family: 'Arial'; fill: #243d49">:</tspan>
      <tspan x="34.744385" y="-0.921875" style="font-size: 7.6px; font-family: 'Arial'; fill: #243d49"> </tspan>
      <tspan x="36.862854" y="-0.921875" style="font-style: oblique; font-size: 7.6px; font-family: 'DejaVu Sans'; fill: #243d49">k</tspan>
      <tspan x="70.59082" y="-0.921875" style="font-style: oblique; font-size: 7.6px; font-family: 'DejaVu Sans'; fill: #243d49">N</tspan>
      <tspan x="42.764038" y="-0.921875" style="font-size: 7.6px; font-family: 'DejaVu Sans'; fill: #243d49">=</tspan>
      <tspan x="50.638489" y="-0.921875" style="font-size: 7.6px; font-family: 'DejaVu Sans'; fill: #243d49">⌈</tspan>
      <tspan x="53.613281" y="-0.921875" style="font-size: 7.6px; font-family: 'DejaVu Sans'; fill: #243d49">0</tspan>
      <tspan x="58.464539" y="-0.921875" style="font-size: 7.6px; font-family: 'DejaVu Sans'; fill: #243d49">.</tspan>
      <tspan x="60.888306" y="-0.921875" style="font-size: 7.6px; font-family: 'DejaVu Sans'; fill: #243d49">0</tspan>
      <tspan x="65.739563" y="-0.921875" style="font-size: 7.6px; font-family: 'DejaVu Sans'; fill: #243d49">3</tspan>
      <tspan x="76.294678" y="-0.921875" style="font-size: 7.6px; font-family: 'DejaVu Sans'; fill: #243d49">⌉</tspan>
     </text>
    </g>
   </g>
   <g id="text_17">
    <text style="font-size: 7.8px; font-family: 'Arial'; fill: #243d49" transform="translate(339.101231 101.397532)">Later post-hoc component /</text>
    <text style="font-size: 7.8px; font-family: 'Arial'; fill: #243d49" transform="translate(338.240794 109.648007)">LightGBM–logistic contrasts</text>
   </g>
   <g id="text_18">
    <text style="font-weight: 700; font-size: 8.6px; font-family: 'Arial'; fill: #243d49" transform="translate(22.425281 179.87956) rotate(-90)">BankSim</text>
   </g>
   <g id="text_19">
    <text style="font-weight: 700; font-size: 8.2px; font-family: 'Arial'; text-anchor: middle; fill: #243d49" x="91.9512" y="144.646482" transform="rotate(-0 91.9512 144.646482)">Separate benchmark</text>
   </g>
   <g id="text_20">
    <text style="font-size: 7.35px; font-family: 'Arial'; text-anchor: middle; fill: #243d49" x="69.7356" y="161.62077" transform="rotate(-0 69.7356 161.62077)">Train</text>
   </g>
   <g id="text_21">
    <text style="font-size: 7.35px; font-family: 'Arial'; text-anchor: middle; fill: #243d49" x="98.8416" y="161.62077" transform="rotate(-0 98.8416 161.62077)">Val</text>
   </g>
   <g id="text_22">
    <text style="font-size: 7.35px; font-family: 'Arial'; text-anchor: middle; fill: #243d49" x="120.4632" y="161.62077" transform="rotate(-0 120.4632 161.62077)">Test</text>
   </g>
   <g id="text_23">
    <text style="font-size: 7.6px; font-family: 'Arial'; text-anchor: middle; fill: #243d49" x="91.9512" y="183.877238" transform="rotate(-0 91.9512 183.877238)">External simulated input</text>
   </g>
   <g id="text_24">
    <text style="font-weight: 700; font-size: 8.2px; font-family: 'Arial'; text-anchor: middle; fill: #243d49" x="220.968" y="144.646482" transform="rotate(-0 220.968 144.646482)">Local protocol freeze</text>
   </g>
   <g id="text_25">
    <text style="font-size: 7.8px; font-family: 'Arial'; text-anchor: middle; fill: #243d49" x="220.968" y="159.69557" transform="rotate(-0 220.968 159.69557)">Before fitting and Test access</text>
   </g>
   <g id="text_26">
    <text style="font-size: 7.9px; font-family: 'Arial'; text-anchor: middle; fill: #243d49" x="220.968" y="180.630245" transform="rotate(-0 220.968 180.630245)">B1-selected configurations</text>
   </g>
   <g id="text_27">
    <text style="font-weight: 700; font-size: 8.05px; font-family: 'Arial'; text-anchor: middle; fill: #4e7865" x="386.5752" y="144.606685" transform="rotate(-0 386.5752 144.606685)">Fixed-model reference comparisons</text>
   </g>
   <g id="text_28">
    <text style="font-size: 8.3px; font-family: 'Arial'; text-anchor: middle; fill: #243d49" x="386.5752" y="161.248599" transform="rotate(-0 386.5752 161.248599)">B0 / B0H / B1 / B1H</text>
   </g>
   <g id="text_29">
    <text style="font-size: 7.55px; font-family: 'Arial'; fill: #243d49" transform="translate(335.862204 175.550256)">AP and whole-window capture</text>
    <text style="font-size: 7.55px; font-family: 'Arial'; fill: #243d49" transform="translate(316.486427 183.536292)">Conditional on the selected configurations</text>
   </g>
   <g id="text_30">
    <text style="font-weight: 700; font-size: 8px; font-family: 'Arial'; fill: #243d49" transform="translate(18.049387 250.855145) rotate(-90)">Revision</text>
    <text style="font-weight: 700; font-size: 8px; font-family: 'Arial'; fill: #243d49" transform="translate(26.385112 256.408895) rotate(-90)">diagnostics</text>
   </g>
   <g id="text_31">
    <text style="font-weight: 700; font-size: 8px; font-family: 'Arial'; text-anchor: middle; fill: #243d49" x="91.9512" y="217.19777" transform="rotate(-0 91.9512 217.19777)">Results already known</text>
   </g>
   <g id="text_32">
    <text style="font-size: 7.6px; font-family: 'Arial'; fill: #243d49" transform="translate(100.025906 237.886825)">Retained</text>
    <text style="font-size: 7.6px; font-family: 'Arial'; fill: #243d49" transform="translate(102.772 245.816452)">outputs</text>
   </g>
   <g id="text_33">
    <text style="font-weight: 700; font-size: 7.8px; font-family: 'Arial'; text-anchor: middle; fill: #243d49" x="220.968" y="217.147238" transform="rotate(-0 220.968 217.147238)">Existing outputs and saved draws</text>
   </g>
   <g id="text_34">
    <text style="font-size: 7.6px; font-family: 'Arial'; text-anchor: middle; fill: #243d49" x="220.968" y="253.777951" transform="rotate(-0 220.968 253.777951)">No new fits or bootstrap draws</text>
   </g>
   <g id="text_35">
    <text style="font-weight: 700; font-size: 8.2px; font-family: 'Arial'; text-anchor: middle; fill: #4e7865" x="386.5752" y="218.198701" transform="rotate(-0 386.5752 218.198701)">Descriptive diagnostics</text>
   </g>
   <g id="text_36">
    <text style="font-size: 8px; font-family: 'Arial'; fill: #243d49" transform="translate(330.544575 232.451832)">Capture headroom / exchanges</text>
    <text style="font-size: 8px; font-family: 'Arial'; fill: #243d49" transform="translate(333.228325 241.007607)">Existing draws / time structure</text>
   </g>
   <g id="text_37">
    <text style="font-size: 7.5px; font-family: 'Arial'; text-anchor: middle; fill: #243d49" x="386.5752" y="253.707545" transform="rotate(-0 386.5752 253.707545)">After the original results were known</text>
   </g>
   <g id="text_38">
    <text style="font-weight: 700; font-size: 7.65px; font-family: 'Arial'; text-anchor: middle; fill: #4e7865" x="237.6" y="280.595157" transform="rotate(-0 237.6 280.595157)">Shared boundaries: strictly past history · intact time groups · fixed models for inference</text>
   </g>
   <g id="text_39">
    <text style="font-size: 7.6px; font-family: 'Arial'; text-anchor: middle; fill: #617580" x="237.6" y="292.93742" transform="rotate(-0 237.6 292.93742)">Distinct designs; no common prospective protocol. Later six-condition development: §3.6.1.</text>
   </g>
  </g>
 </g>
 <defs>
  <clipPath id="p12ce024832">
   <rect x="0" y="0" width="475.2" height="300.71252"/>
  </clipPath>
 </defs>
</svg>
